<?xml version="1.0" encoding="UTF-8"?>
<svg id="Layer_1" xmlns="http://www.w3.org/2000/svg" xmlns:xlink="http://www.w3.org/1999/xlink" version="1.1" viewBox="0 0 1500 1500">
  <!-- Generator: Adobe Illustrator 30.0.0, SVG Export Plug-In . SVG Version: 2.1.1 Build 123)  -->
  <defs>
    <style>
      .st0 {
        fill: url(#linear-gradient2);
      }

      .st1 {
        fill: url(#linear-gradient1);
      }

      .st2 {
        fill: url(#linear-gradient3);
      }

      .st3 {
        fill: url(#linear-gradient6);
      }

      .st4 {
        fill: url(#linear-gradient7);
      }

      .st5 {
        fill: url(#linear-gradient5);
      }

      .st6 {
        fill: url(#linear-gradient4);
      }

      .st7 {
        fill: #d1d3d4;
      }

      .st8 {
        fill: #138247;
      }

      .st9 {
        fill: #231f20;
      }

      .st10 {
        fill: url(#linear-gradient);
      }

      .st11 {
        fill: #ed1c24;
      }

      .st12 {
        fill: #003660;
      }

      .st13 {
        fill: #fff;
      }

      .st14 {
        fill: #0e97ce;
      }

      .st15 {
        opacity: .5;
      }

      .st16 {
        fill: #63bc46;
      }
    </style>
    <linearGradient id="linear-gradient" x1="619.96" y1="423.54" x2="620.85" y2="535.15" gradientUnits="userSpaceOnUse">
      <stop offset="0" stop-color="#fff" stop-opacity="0"/>
      <stop offset="1" stop-color="#fff"/>
    </linearGradient>
    <linearGradient id="linear-gradient1" x1="779.62" y1="422.27" x2="780.51" y2="533.89" xlink:href="#linear-gradient"/>
    <linearGradient id="linear-gradient2" x1="912.83" y1="421.21" x2="913.71" y2="532.83" xlink:href="#linear-gradient"/>
    <linearGradient id="linear-gradient3" x1="481.38" y1="616.89" x2="479.61" y2="708.13" xlink:href="#linear-gradient"/>
    <linearGradient id="linear-gradient4" x1="634.96" y1="619.87" x2="633.18" y2="711.11" xlink:href="#linear-gradient"/>
    <linearGradient id="linear-gradient5" x1="750.63" y1="622.12" x2="748.86" y2="713.36" xlink:href="#linear-gradient"/>
    <linearGradient id="linear-gradient6" x1="883.96" y1="624.7" x2="882.19" y2="715.94" xlink:href="#linear-gradient"/>
    <linearGradient id="linear-gradient7" x1="1031.68" y1="627.57" x2="1029.91" y2="718.81" xlink:href="#linear-gradient"/>
  </defs>
  <path class="st12" d="M750,1500l-35.71-36.54-39.11,32.88-31.92-39.89-42.19,28.81-27.74-42.9-44.88,24.4-23.28-45.48-47.11,19.77-17.5-47.03-47.66,15.71-12.89-48.49-48.95,11.02-8.12-49.52-49.79,6.23-3.32-50.07-50.16,1.44,1.44-50.16-50.07-3.32,6.22-49.79-49.52-8.12,11.02-48.95-48.49-12.89,15.71-47.66-47.03-17.5,19.77-47.11-45.48-23.28,24.4-44.89-42.9-27.74,28.81-42.19-39.89-31.92,32.88-39.11L0,750l36.54-35.71-32.88-39.11,39.89-31.92-28.81-42.19,42.9-27.74-24.4-44.88,45.48-23.28-19.77-47.11,47.03-17.5-15.71-47.66,48.49-12.89-11.02-48.95,49.52-8.12-6.23-49.79,50.07-3.32-1.44-50.16,50.16,1.44,3.32-50.07,49.79,6.22,8.12-49.52,48.95,11.02,12.89-48.49,47.66,15.71,17.5-47.03,47.11,19.77,23.28-45.48,44.89,24.4,27.75-42.9,42.19,28.81,31.92-39.89,39.11,32.88L750,0l35.71,36.54,39.11-32.88,31.92,39.89,42.19-28.81,27.74,42.9,44.88-24.4,23.28,45.48,47.11-19.77,17.5,47.03,47.66-15.71,12.89,48.49,48.95-11.02,8.12,49.52,49.79-6.23,3.32,50.07,50.16-1.44-1.44,50.16,50.07,3.32-6.22,49.79,49.52,8.12-11.02,48.95,48.49,12.89-15.71,47.66,47.03,17.5-19.77,47.11,45.48,23.28-24.4,44.89,42.9,27.74-28.81,42.19,39.89,31.92-32.88,39.11,36.54,35.71-36.54,35.71,32.88,39.11-39.89,31.92,28.81,42.19-42.9,27.74,24.4,44.88-45.48,23.28,19.77,47.11-47.03,17.5,15.71,47.66-48.49,12.89,11.02,48.95-49.52,8.12,6.23,49.79-50.07,3.32,1.44,50.16-50.16-1.44-3.32,50.07-49.79-6.22-8.12,49.52-48.95-11.02-12.89,48.49-47.66-15.71-17.5,47.03-47.11-19.77-23.28,45.48-44.89-24.4-27.74,42.9-42.19-28.81-31.92,39.89-39.11-32.88-35.71,36.54Z"/>
  <path class="st8" d="M1180.52,936.17c-11.8,27.65-26.32,54.12-43.45,79.1H362.91c-17.08-24.98-31.6-51.45-43.39-79.1h861Z"/>
  <path class="st14" d="M1137.07,1015.28c-16.4,24.01-35.13,46.62-56.12,67.67-88.39,88.39-205.92,137.12-330.96,137.12s-242.56-48.73-330.96-137.12c-4.53-4.53-8.9-9.12-13.22-13.81-12.09-13.11-23.36-26.77-33.73-40.96-3.18-4.26-6.21-8.53-9.17-12.9h774.15Z"/>
  <g>
    <polygon class="st13" points="462.72 803.31 542.55 797.53 462.72 791.74 492.43 754.61 455.3 784.32 449.51 704.49 443.73 784.32 406.6 754.61 436.3 791.74 356.48 797.53 436.3 803.31 406.6 840.45 443.73 810.74 449.51 890.57 455.3 810.74 492.43 840.45 462.72 803.31"/>
    <path class="st9" d="M1005.99,853.88c-19.8,9.39-79.06,19.64-94.16,19.43-22.72,18.08-40.37,26.39-63.73,41.88-23.36,15.49-22.07,50.56,13.01,83.27,6.26,5.83,11.39,11.49,15.54,16.84,19.21,24.55,18.62,42.63,18.62,42.63,1.62,4.64,36.05,2.59,35.46,7.01-.65,4.48-37.56,15.11-84.02,6.69-46.3-8.42-110.3-12.3-111.54-4.1-1.24,8.2,49.27,5.61,48.94,8.42-.27,2.86-80.02,1.84-167.61.92-72.31-.81-155.84-4.37-210.67-7.72-12.09-13.11-23.36-26.77-33.73-40.96,2.32-1.57,4.86-3.18,7.45-5.02,4.21-2.91,6.91-5.5,8.52-7.88,8.26-11.87-11.6-17.16-11.33-19.75.27-3.13,11.6-4.1,37.67,2.81,26.01,6.91,42.04-.92,72.69-11.44,45.87-15.76,94.11-28.28,133.18-28.28,80.46,0,111.87,16.67,111.87,16.67,0,0-19.1-36.32-14.25-75.22,9.55-57.74,50.13-93.46,96.06-102.58,45.87-9.12,60.55,6.8,70.1,15.92,1.3,1.24,2.54,2.48,3.67,3.72,3.51,3.72,6.31,7.12,9.07,9.66,2.8,2.59,5.56,4.26,9.12,4.48,7.72.38,77.17,11.39,99.94,19.8,1.29.43,1.35,2.21.16,2.81Z"/>
    <path class="st13" d="M886.21,1064.51c-.3,2.25-2.15,3.99-4.4,4.05-14.01.38-29.41-1.38-44.77-3.61-12.71-1.82-25.36-3.96-37.25-5.46,2.15-11.38-.84-31.82-5.46-37.58,2.82,16.64.24,29.65-1.9,36.74-2.44-.24-4.83-.46-7.2-.62,3.67-11.13,4.78-28.32,1.9-34.29-.98,15.69-5.76,27.23-9.42,33.94-3.96-.11-7.79-.05-11.35.27,0,0,15.8-14.85,15.04-43.66-.05-1.44.62-2.8,1.85-3.56,11.95-7.47,24.36-13.66,34.37-18.19,8.06-3.67,14.61-6.25,18.19-7.63,1.82-.68,3.88-.14,5.1,1.38,4.62,5.73,16.35,20.07,26.23,30.11,11.89,12.11,21.91,26.26,19.06,48.11Z"/>
    <path class="st7" d="M837.03,1064.95c-12.71-1.82-25.36-3.96-37.25-5.46,2.15-11.38-.84-31.82-5.46-37.58,2.82,16.64.24,29.65-1.9,36.74-2.44-.24-4.83-.46-7.2-.62,3.67-11.13,4.78-28.32,1.9-34.29-.98,15.69-5.76,27.23-9.42,33.94-3.96-.11-7.79-.05-11.35.27,0,0,15.8-14.85,15.04-43.66-.05-1.44.62-2.8,1.85-3.56,11.95-7.47,24.36-13.66,34.37-18.19,8.36,11.87,25.47,40.84,19.41,72.41Z"/>
    <path class="st13" d="M980.57,849.08c-7.72-1.83-62.49-11.39-71.56-11.55-9.12-.16-8.31.75-8.31,4.75s2.91,4.48,0,6.04c-1.78.92-7.66,1.35-14.19,3.51h-.05c-4.16,1.3-8.53,3.35-12.25,6.64-8.63,7.72,32.49,0,49.43-2-20.77,10.31-12.95,9.88-.32,9.88s47.38-7.39,59.52-10.47c3.35-.86,5.29-1.62,6.15-2.32,2.21-1.78-2.86-3.13-8.42-4.48ZM917.76,844c5.78.76,7.02,1.78,6.91,2.91-.16,1.13-8.58-.22-11.44-1.08-2.86-.86-4.37-3.02,4.53-1.83Z"/>
    <path class="st7" d="M988.98,853.57c-.87.68-2.77,1.44-6.11,2.28-12.16,3.1-46.95,10.48-59.54,10.48s-20.47.46.3-9.86c-16.92,2.01-58.02,9.69-49.39,2.01,3.69-3.31,8.09-5.35,12.25-6.68h.03c39.53,1.25,80.67,1.9,102.47,1.77Z"/>
    <g>
      <ellipse class="st13" cx="579.27" cy="976.04" rx="5.9" ry="3.12"/>
      <ellipse class="st13" cx="577.62" cy="984.08" rx="7.09" ry="3.75"/>
      <ellipse class="st13" cx="575.27" cy="993.85" rx="8.72" ry="4.62"/>
      <ellipse class="st13" cx="572.84" cy="1006.56" rx="10.24" ry="5.42"/>
      <ellipse class="st13" cx="570.54" cy="1020.64" rx="10.78" ry="5.98"/>
      <ellipse class="st13" cx="567.93" cy="1034.17" rx="8.8" ry="4.88"/>
      <path class="st13" d="M561.39,976.12c-.23,1.65-2.87,2.99-5.9,2.99s-5.3-1.34-5.07-2.99c.23-1.65,2.87-2.99,5.9-2.99s5.3,1.34,5.07,2.99Z"/>
      <path class="st13" d="M559.89,983.82c-.28,1.98-3.45,3.59-7.09,3.59s-6.36-1.61-6.09-3.59c.28-1.98,3.45-3.59,7.09-3.59s6.36,1.61,6.09,3.59Z"/>
      <path class="st13" d="M557.92,993.18c-.34,2.44-4.24,4.42-8.72,4.42s-7.83-1.98-7.49-4.42c.34-2.44,4.24-4.42,8.72-4.42s7.83,1.98,7.49,4.42Z"/>
      <path class="st13" d="M555.38,1005.35c-.4,2.87-4.98,5.19-10.24,5.19s-9.19-2.32-8.79-5.19c.4-2.87,4.98-5.19,10.24-5.19s9.19,2.32,8.79,5.19Z"/>
      <path class="st13" d="M551.88,1018.82c-.44,3.16-5.28,5.72-10.82,5.72s-9.67-2.56-9.23-5.72c.44-3.16,5.28-5.72,10.82-5.72s9.67,2.56,9.23,5.72Z"/>
      <path class="st13" d="M545.81,1031.78c-.36,2.58-4.31,4.67-8.83,4.67s-7.89-2.09-7.53-4.67c.36-2.58,4.31-4.67,8.83-4.67s7.89,2.09,7.53,4.67Z"/>
      <path class="st13" d="M534.09,984.72c-.41,1.95-3.69,3.54-7.33,3.54s-6.26-1.58-5.85-3.54c.41-1.95,3.69-3.54,7.33-3.54s6.26,1.58,5.85,3.54Z"/>
      <path class="st13" d="M531.49,993.93c-.5,2.4-4.54,4.35-9.02,4.35s-7.7-1.95-7.19-4.35c.5-2.4,4.54-4.35,9.02-4.35s7.7,1.95,7.19,4.35Z"/>
      <path class="st13" d="M528.13,1005.91c-.59,2.82-5.33,5.11-10.58,5.11s-9.04-2.29-8.44-5.11c.59-2.82,5.33-5.11,10.58-5.11s9.04,2.29,8.44,5.11Z"/>
      <path class="st13" d="M523.72,1019.17c-.65,3.11-5.67,5.63-11.2,5.63s-9.5-2.52-8.84-5.63c.65-3.11,5.67-5.63,11.2-5.63s9.5,2.52,8.84,5.63Z"/>
      <path class="st13" d="M505.68,993.71c-.41,1.95-3.69,3.54-7.33,3.54s-6.26-1.58-5.85-3.54,3.69-3.54,7.33-3.54,6.26,1.58,5.85,3.54Z"/>
      <path class="st13" d="M503.08,1002.92c-.5,2.4-4.54,4.35-9.02,4.35s-7.7-1.95-7.19-4.35c.5-2.4,4.54-4.35,9.02-4.35s7.7,1.95,7.19,4.35Z"/>
      <path class="st13" d="M499.72,1014.9c-.59,2.82-5.33,5.11-10.58,5.11s-9.04-2.29-8.44-5.11c.59-2.82,5.33-5.11,10.58-5.11s9.04,2.29,8.44,5.11Z"/>
      <path class="st13" d="M483.12,999.64c-.41,1.95-3.69,3.54-7.33,3.54s-6.26-1.58-5.85-3.54c.41-1.95,3.69-3.54,7.33-3.54s6.26,1.58,5.85,3.54Z"/>
      <path class="st13" d="M480.52,1008.85c-.5,2.4-4.54,4.35-9.02,4.35s-7.7-1.95-7.19-4.35c.5-2.4,4.54-4.35,9.02-4.35s7.7,1.95,7.19,4.35Z"/>
      <path class="st13" d="M603.37,975.38c3.26,0,6.1,1.4,6.34,3.14l-6.34-3.14Z"/>
      <path class="st13" d="M609.71,978.51c.24,1.73-2.21,3.14-5.46,3.14s-6.1-1.4-6.34-3.14c-.24-1.73,2.21-3.14,5.46-3.14l6.34,3.14Z"/>
      <path class="st13" d="M610.37,986.59c.29,2.08-2.65,3.77-6.56,3.77s-7.32-1.69-7.61-3.77c-.29-2.08,2.65-3.77,6.56-3.77s7.32,1.69,7.61,3.77Z"/>
      <path class="st13" d="M611.01,996.4c.36,2.56-3.26,4.64-8.08,4.64s-9.01-2.08-9.37-4.64,3.26-4.64,8.08-4.64,9.01,2.08,9.37,4.64Z"/>
      <path class="st13" d="M591.4,1009.17c-.42-3.01,3.83-5.44,9.48-5.44s10.57,2.44,10.99,5.44c.42,3.01-3.83,5.44-9.48,5.44s-10.57-2.44-10.99-5.44h0Z"/>
      <path class="st13" d="M590.51,1023.29c-.46-3.31,3.99-6,9.95-6s11.16,2.69,11.62,6c.46,3.31-3.99,6-9.95,6s-11.16-2.69-11.62-6h0Z"/>
      <path class="st13" d="M591.77,1036.88c-.38-2.7,3.26-4.9,8.12-4.9s9.11,2.19,9.48,4.9c.38,2.7-3.26,4.9-8.12,4.9s-9.11-2.19-9.48-4.9h0Z"/>
      <path class="st13" d="M627.78,978.97c3.26,0,6.28,1.43,6.75,3.19l-6.75-3.19Z"/>
      <path class="st13" d="M634.53,982.16c.47,1.76-1.79,3.19-5.05,3.19s-6.28-1.43-6.75-3.19c-.47-1.76,1.79-3.19,5.05-3.19l6.75,3.19Z"/>
      <path class="st13" d="M636.25,990.37c.56,2.11-2.15,3.83-6.07,3.83s-7.54-1.71-8.11-3.83c-.56-2.11,2.15-3.83,6.07-3.83s7.54,1.71,8.11,3.83Z"/>
      <path class="st13" d="M638.19,1000.34c.69,2.6-2.65,4.71-7.47,4.71s-9.28-2.11-9.98-4.71c-.69-2.6,2.65-4.71,7.47-4.71s9.28,2.11,9.98,4.71Z"/>
      <path class="st13" d="M620.26,1013.31c-.81-3.05,3.11-5.53,8.76-5.53s10.9,2.48,11.71,5.53c.81,3.05-3.11,5.53-8.76,5.53s-10.9-2.48-11.71-5.53h0Z"/>
      <path class="st13" d="M621.23,1027.67c-.9-3.37,3.2-6.1,9.16-6.1s11.51,2.73,12.41,6.1c.9,3.37-3.2,6.1-9.16,6.1s-11.51-2.73-12.41-6.1h0Z"/>
      <path class="st13" d="M651.04,983.53c3.26,0,6.48,1.54,7.19,3.44l-7.19-3.44Z"/>
      <path class="st13" d="M658.23,986.97c.71,1.9-1.35,3.44-4.61,3.44s-6.48-1.54-7.19-3.44c-.71-1.9,1.35-3.44,4.61-3.44l7.19,3.44Z"/>
      <path class="st13" d="M661.1,995.83c.86,2.28-1.62,4.13-5.53,4.13s-7.78-1.85-8.64-4.13c-.86-2.28,1.62-4.13,5.53-4.13s7.78,1.85,8.64,4.13Z"/>
      <path class="st13" d="M664.43,1006.6c1.06,2.81-1.99,5.09-6.81,5.09s-9.58-2.28-10.63-5.09c-1.06-2.81,1.99-5.09,6.81-5.09s9.58,2.28,10.63,5.09Z"/>
      <path class="st13" d="M648.3,1020.6c-1.24-3.3,2.34-5.97,7.99-5.97s11.24,2.67,12.48,5.97c1.24,3.3-2.34,5.97-7.99,5.97s-11.24-2.67-12.48-5.97h0Z"/>
      <path class="st13" d="M687.45,999.09c1.17,2.19-1.06,3.96-4.97,3.96s-8.03-1.77-9.2-3.96c-1.17-2.19,1.06-3.96,4.97-3.96s8.03,1.77,9.2,3.96Z"/>
      <path class="st13" d="M692.24,1009.41c1.44,2.69-1.3,4.87-6.12,4.87s-9.89-2.18-11.33-4.87c-1.44-2.69,1.3-4.87,6.12-4.87s9.89,2.18,11.33,4.87Z"/>
      <path class="st13" d="M713.43,1010.52c1.17,2.19-1.06,3.96-4.97,3.96s-8.03-1.77-9.2-3.96c-1.17-2.19,1.06-3.96,4.97-3.96s8.03,1.77,9.2,3.96Z"/>
      <path class="st13" d="M718.22,1020.84c1.44,2.69-1.3,4.87-6.12,4.87s-9.89-2.18-11.33-4.87c-1.44-2.69,1.3-4.87,6.12-4.87s9.89,2.18,11.33,4.87Z"/>
      <path class="st13" d="M678.03,1022.83c-1.69-3.16,1.53-5.72,7.18-5.72s11.6,2.56,13.29,5.72c1.69,3.16-1.53,5.72-7.18,5.72s-11.6-2.56-13.29-5.72h0Z"/>
      <ellipse class="st13" cx="801.33" cy="940.5" rx="3.08" ry="3.71"/>
      <ellipse class="st13" cx="791.78" cy="939.77" rx="4.12" ry="5.58"/>
      <ellipse class="st13" cx="780.86" cy="939.72" rx="4.45" ry="7.3"/>
      <ellipse class="st13" cx="769.61" cy="939.2" rx="4.45" ry="9.59"/>
      <ellipse class="st13" cx="758.07" cy="939.59" rx="4.75" ry="11.74"/>
      <ellipse class="st13" cx="746.23" cy="939.51" rx="4.75" ry="14.46"/>
      <ellipse class="st13" cx="734.02" cy="939.2" rx="5.11" ry="17.1"/>
    </g>
  </g>
  <g>
    <polygon class="st16" points="636.95 518.88 664.08 446.13 664.08 518.88 706.49 518.88 706.49 365.55 658.9 365.55 620.41 461.48 581.52 365.55 533.73 365.55 533.73 518.88 576.14 518.88 576.14 445.85 603.49 518.88 636.95 518.88"/>
    <path class="st16" d="M831.84,496.42c4.56-7.33,6.87-15.59,6.87-24.54,0-9.48-2.41-17.41-7.18-23.57-4.62-5.95-10.18-10.56-16.51-13.69-6.01-2.96-13.91-6.11-23.53-9.36-9.17-2.97-15.98-5.75-20.21-8.26-3.44-2.05-5.05-4.66-5.05-8.2,0-3.34.92-5.76,2.81-7.4,2.03-1.76,4.73-2.62,8.25-2.62,4.24,0,7.56,1.07,10.17,3.28,2.49,2.12,3.82,5.01,4.05,8.83l.18,3.15h45.31l-.18-3.51c-.74-14.74-6.52-26.43-17.15-34.74-10.45-8.17-24.28-12.31-41.12-12.31s-30.26,4.14-40.7,12.31c-10.69,8.36-16.11,20.03-16.11,34.7,0,9.9,2.41,18.09,7.15,24.35,4.6,6.1,10.2,10.79,16.66,13.95,6.11,2.98,14.08,6,23.69,8.98,6.42,1.92,11.4,3.63,14.78,5.09,3.17,1.37,5.86,3.11,7.99,5.18,1.78,1.73,2.64,3.88,2.64,6.59,0,3.32-1.06,5.71-3.33,7.52-2.46,1.95-5.98,2.93-10.46,2.93s-7.71-1.12-10.31-3.43c-2.58-2.3-4.07-5.67-4.54-10.28l-.31-3h-44.48l.1,3.44c.29,10.25,3.22,19.19,8.7,26.55,5.44,7.29,12.76,12.86,21.78,16.54,8.85,3.63,18.97,5.47,30.09,5.47s21.62-2.15,30.11-6.41c8.59-4.3,15.27-10.19,19.84-17.51Z"/>
    <path class="st16" d="M896.37,466.24h18.8c12.48,0,23.13-2.31,31.65-6.87,8.61-4.6,15.11-10.77,19.31-18.36,4.16-7.5,6.27-15.87,6.27-24.9,0-9.74-2.19-18.52-6.5-26.1-4.34-7.64-10.93-13.72-19.58-18.05-8.51-4.26-19-6.41-31.16-6.41h-61.2v153.33h42.41v-52.64ZM896.37,401.07h16.08c5.9,0,10.25,1.31,12.94,3.88,2.68,2.57,3.98,6.22,3.98,11.16s-1.31,8.59-3.98,11.16c-2.68,2.57-7.03,3.87-12.94,3.87h-16.08v-30.07Z"/>
    <polygon class="st16" points="481.4 650.44 442.51 554.5 394.72 554.5 394.72 707.83 437.13 707.83 437.13 634.81 464.47 707.83 497.94 707.83 525.07 635.09 525.07 707.83 567.48 707.83 567.48 554.5 519.89 554.5 481.4 650.44"/>
    <polygon class="st16" points="586.48 707.83 682.99 707.83 682.99 672.54 628.89 672.54 628.89 647.05 676.72 647.05 676.72 612.8 628.89 612.8 628.89 589.81 682.99 589.81 682.99 554.5 586.48 554.5 586.48 707.83"/>
    <polygon class="st16" points="691.55 589.81 730.4 589.81 730.4 707.83 772.81 707.83 772.81 589.81 811.66 589.81 811.66 554.5 691.55 554.5 691.55 589.81"/>
    <path class="st16" d="M934.59,632.08c5.89-8.19,8.88-17.64,8.88-28.06,0-9.19-2.19-17.65-6.5-25.17-4.35-7.57-10.98-13.61-19.69-17.94-8.59-4.25-19.03-6.41-31.04-6.41h-63.29v153.33h42.41v-55.35h3.24l30.5,55.35h48.11l-34.7-59.55c9.47-3.52,16.89-8.96,22.09-16.21ZM896.53,616.68c-2.61,2.55-6.77,3.84-12.39,3.84h-18.8v-29.66h18.8c5.6,0,9.77,1.3,12.39,3.85,2.62,2.57,3.9,6.09,3.9,10.77,0,4.95-1.28,8.61-3.9,11.19Z"/>
    <path class="st16" d="M1099.8,590.43c-6.9-11.9-16.47-21.31-28.43-27.98-11.95-6.66-25.25-10.04-39.53-10.04s-27.59,3.38-39.54,10.04c-11.95,6.67-21.59,16.07-28.62,27.96-7.03,11.89-10.59,25.46-10.59,40.34s3.56,28.49,10.59,40.45c7.03,11.95,16.66,21.4,28.62,28.06,11.93,6.66,25.24,10.04,39.55,10.04s27.58-3.38,39.44-10.04c11.9-6.67,21.46-16.11,28.42-28.08,6.95-11.95,10.47-25.56,10.47-40.43s-3.49-28.41-10.37-40.32ZM1057.45,659.43c-6.44,7.13-14.81,10.6-25.61,10.6s-19.41-3.43-25.84-10.51c-6.42-7.05-9.68-16.73-9.68-28.77s3.25-21.88,9.66-28.86c6.42-7.01,14.88-10.41,25.85-10.41s19.19,3.43,25.62,10.5c6.42,7.06,9.68,16.75,9.68,28.77s-3.26,21.55-9.68,28.68Z"/>
  </g>
  <g class="st15">
    <path class="st10" d="M703.15,368.89v146.64h-35.72v-87.93l-32.8,87.93h-28.83l-33-88.14v88.14h-35.72v-146.64h42.19l41.15,101.53,40.74-101.53h41.99Z"/>
    <path class="st1" d="M753.07,511.78c-8.49-3.47-15.28-8.63-20.37-15.45-5.08-6.83-7.76-15.04-8.04-24.65h38.02c.55,5.43,2.44,9.57,5.63,12.43,3.21,2.85,7.38,4.28,12.54,4.28s9.47-1.23,12.54-3.66c3.06-2.44,4.6-5.81,4.6-10.13,0-3.62-1.22-6.62-3.66-8.98-2.44-2.36-5.43-4.31-8.98-5.85-3.55-1.53-8.6-3.26-15.15-5.22-9.47-2.93-17.2-5.85-23.18-8.78-5.99-2.93-11.15-7.23-15.45-12.95-4.32-5.71-6.48-13.15-6.48-22.34,0-13.65,4.94-24.34,14.83-32.07,9.89-7.73,22.77-11.6,38.65-11.6s29.17,3.87,39.06,11.6c9.89,7.73,15.17,18.49,15.87,32.28h-38.64c-.28-4.74-2.02-8.46-5.22-11.18-3.21-2.72-7.31-4.07-12.33-4.07-4.32,0-7.8,1.15-10.45,3.45-2.64,2.3-3.96,5.6-3.96,9.92,0,4.74,2.23,8.42,6.68,11.07,4.46,2.64,11.42,5.5,20.89,8.57,9.47,3.2,17.16,6.25,23.08,9.18,5.92,2.93,11.03,7.18,15.36,12.74,4.31,5.58,6.47,12.74,6.47,21.52s-2.12,15.94-6.37,22.77c-4.25,6.82-10.41,12.25-18.49,16.28-8.08,4.05-17.62,6.06-28.62,6.06s-20.33-1.74-28.83-5.22Z"/>
    <path class="st0" d="M963.21,439.4c-3.9,7.04-9.89,12.72-17.96,17.03-8.08,4.32-18.11,6.48-30.08,6.48h-22.14v52.64h-35.72v-146.64h57.86c11.7,0,21.59,2.02,29.66,6.06,8.08,4.05,14.14,9.61,18.17,16.71,4.04,7.1,6.06,15.25,6.06,24.45,0,8.49-1.95,16.26-5.85,23.28ZM927.7,429.69c3.34-3.21,5.01-7.73,5.01-13.58s-1.67-10.38-5.01-13.58c-3.34-3.2-8.43-4.81-15.25-4.81h-19.42v36.76h19.42c6.82,0,11.91-1.59,15.25-4.79Z"/>
    <path class="st2" d="M564.13,557.85v146.64h-35.72v-87.93l-32.8,87.93h-28.83l-33-88.14v88.14h-35.72v-146.64h42.19l41.15,101.53,40.74-101.53h41.99Z"/>
    <path class="st6" d="M625.55,586.47v29.67h47.83v27.57h-47.83v32.18h54.1v28.61h-89.82v-146.64h89.82v28.62h-54.1Z"/>
    <path class="st5" d="M808.32,557.85v28.62h-38.85v118.02h-35.72v-118.02h-38.85v-28.62h113.42Z"/>
    <path class="st3" d="M901.06,704.49l-30.5-55.35h-8.56v55.35h-35.72v-146.64h59.95c11.56,0,21.41,2.02,29.56,6.06,8.15,4.05,14.24,9.58,18.28,16.61,4.04,7.04,6.06,14.87,6.06,23.5,0,9.74-2.75,18.45-8.25,26.1-5.5,7.67-13.61,13.1-24.33,16.3l33.84,58.07h-40.32ZM862.01,623.86h22.14c6.54,0,11.45-1.59,14.72-4.79,3.27-3.21,4.91-7.73,4.91-13.58s-1.64-9.96-4.91-13.16c-3.27-3.2-8.18-4.81-14.72-4.81h-22.14v36.34Z"/>
    <path class="st4" d="M993.92,696.34c-11.49-6.4-20.61-15.34-27.37-26.83-6.75-11.49-10.13-24.41-10.13-38.76s3.38-27.21,10.13-38.64c6.76-11.41,15.88-20.33,27.37-26.74,11.48-6.4,24.13-9.61,37.91-9.61s26.42,3.21,37.91,9.61c11.49,6.41,20.54,15.33,27.16,26.74,6.61,11.43,9.92,24.3,9.92,38.64s-3.34,27.27-10.02,38.76c-6.69,11.49-15.74,20.44-27.16,26.83-11.42,6.41-24.02,9.61-37.8,9.61s-26.43-3.2-37.91-9.61ZM1059.93,661.67c7.03-7.8,10.54-18.1,10.54-30.92s-3.52-23.28-10.54-31.01c-7.04-7.73-16.4-11.6-28.09-11.6s-21.28,3.83-28.31,11.49c-7.03,7.65-10.54,18.03-10.54,31.12s3.51,23.3,10.54,31.03c7.03,7.73,16.47,11.6,28.31,11.6s21.06-3.9,28.09-11.7Z"/>
  </g>
  <path class="st16" d="M1084.56,415.43c-89.36-89.36-208.19-138.63-334.57-138.63s-245.21,49.27-334.57,138.63c-89.36,89.36-138.58,208.19-138.58,334.57,0,65.08,13.06,128.11,37.94,186.17,11.93,27.95,26.6,54.72,43.87,79.97,16.57,24.28,35.51,47.16,56.77,68.43,89.36,89.36,208.19,138.63,334.57,138.63s245.21-49.27,334.57-138.63c21.26-21.26,40.2-44.14,56.77-68.43,17.32-25.25,32-52.02,43.93-79.97,24.88-58.06,37.93-121.09,37.93-186.17,0-126.38-49.21-245.21-138.63-334.57ZM1177.27,936.17c-12.3,28.22-27.36,54.99-44.84,79.97-84.24,120.82-224.27,199.99-382.44,199.99s-298.2-79.16-382.44-199.99c-17.48-24.98-32.54-51.75-44.84-79.97-24.98-57.04-38.85-120.01-38.85-186.17,0-257.03,209.11-466.13,466.13-466.13s466.13,209.11,466.13,466.13c0,66.16-13.87,129.13-38.85,186.17Z"/>
  <path class="st11" d="M1418.02,679.48l-7.68-37.37-540.52,181c-2.51-2.99-6.22-4.93-10.43-4.93-7.55,0-13.66,6.12-13.66,13.66s6.12,13.66,13.66,13.66c6.97,0,12.65-5.23,13.49-11.97l545.13-154.05Z"/>
  <path class="st16" d="M586.75,1413.39c-89.55-22.04-172.12-60.96-245.4-115.68-70.77-52.85-129.95-118.14-175.88-194.06-45.93-75.91-76.3-158.63-90.28-245.85-14.47-90.31-10.63-181.5,11.41-271.06,22.04-89.55,60.96-172.12,115.68-245.4,52.85-70.78,118.15-129.95,194.06-175.88,75.91-45.93,158.63-76.3,245.85-90.28,90.31-14.47,181.5-10.63,271.06,11.41,89.55,22.04,172.12,60.96,245.4,115.68,70.78,52.85,129.95,118.14,175.88,194.06,45.93,75.91,76.3,158.63,90.28,245.85,14.47,90.31,10.63,181.5-11.41,271.06-22.04,89.55-60.96,172.12-115.68,245.4-52.85,70.78-118.14,129.95-194.06,175.88-75.91,45.93-158.63,76.3-245.85,90.28-90.31,14.47-181.5,10.63-271.06-11.41ZM908.69,105.14C553.12,17.64,192.64,235.73,105.14,591.31c-87.5,355.58,130.59,716.05,486.17,803.55,355.58,87.5,716.05-130.59,803.55-486.17,87.5-355.58-130.59-716.05-486.17-803.55Z"/>
  <g>
    <g>
      <g>
        <path class="st13" d="M152.78,894.92l90.11-29.3,4.81,14.78-61.71,20.07,70.65,7.42,3.33,10.24-52.74,47.68,61.71-20.07,4.81,14.78-90.11,29.3-5.19-15.95,60.38-54.61-80.9-8.53-5.14-15.82Z"/>
        <path class="st13" d="M144.36,841.14l93.56-14.95,2.45,15.34-93.57,14.95-2.45-15.35Z"/>
        <path class="st13" d="M232.06,724.41l.31,15.54-69.81,48.16,70.75-1.41.31,15.54-94.87,1.89-.31-15.54,69.68-48.16-70.61,1.41-.31-15.54,94.87-1.89Z"/>
        <path class="st13" d="M247.57,624.07l-2.72,15.3-77.86,33.64,69.66,12.4-2.73,15.3-93.42-16.63,2.73-15.3,77.72-33.66-69.53-12.38,2.72-15.3,93.42,16.63Z"/>
        <path class="st13" d="M182.87,558.69l26.15,9.48,11.14-30.76,11.92,4.33-11.15,30.76,27.3,9.89,12.55-34.61,11.92,4.32-17.84,49.22-89.21-32.33,17.84-49.22,11.92,4.32-12.54,34.61Z"/>
        <path class="st13" d="M292.57,471.92l-19.48,34.56,13.52,15.44-7.97,14.13-66-76.16,8.84-15.68,99.33,17.02-8.03,14.26-20.21-3.57ZM279.38,469.49l-45.92-8.2,30.73,35.16,15.19-26.96Z"/>
        <path class="st13" d="M331.18,364.76c1.85,4.47,2.22,9.49,1.1,15.05-1.11,5.56-4.16,11.36-9.13,17.39l-10.94,13.25,29.65,24.47-9.89,11.99-73.07-60.32,20.83-25.23c4.62-5.61,9.51-9.56,14.65-11.86,5.14-2.3,10.15-3.05,15.03-2.26,4.89.79,9.37,2.87,13.42,6.22,3.72,3.07,6.5,6.84,8.35,11.31ZM318.69,376.36c-.21-3.95-2.22-7.49-6-10.62-7.99-6.59-15.72-5.37-23.19,3.67l-10.93,13.25,23.86,19.7,10.94-13.25c3.75-4.56,5.53-8.81,5.31-12.76Z"/>
        <path class="st13" d="M397.75,366.32c-8.35,1.55-16.54.85-24.6-2.09-8.05-2.94-15.04-7.98-20.96-15.12-5.92-7.13-9.57-14.91-10.95-23.34-1.38-8.42-.54-16.59,2.52-24.5,3.07-7.91,7.98-14.68,14.76-20.31,6.86-5.69,14.46-9.31,22.8-10.85,8.34-1.55,16.5-.85,24.49,2.08,7.99,2.94,14.94,7.97,20.86,15.11,5.92,7.13,9.61,14.91,11.05,23.34,1.44,8.43.64,16.6-2.42,24.51s-8.02,14.71-14.87,20.4c-6.79,5.63-14.35,9.22-22.69,10.77ZM421.99,331.16c1.95-5.34,2.29-10.94,1.03-16.8-1.27-5.86-4.13-11.48-8.61-16.87-4.47-5.39-9.46-9.22-14.95-11.51-5.5-2.28-11.04-2.95-16.61-1.98-5.57.96-10.78,3.45-15.61,7.46-4.83,4-8.22,8.66-10.2,13.96-1.97,5.3-2.35,10.87-1.12,16.7,1.23,5.83,4.09,11.43,8.55,16.82,4.47,5.39,9.47,9.24,15,11.56,5.53,2.32,11.1,3.02,16.7,2.09,5.6-.93,10.82-3.4,15.65-7.4s8.22-8.68,10.16-14.01Z"/>
        <path class="st13" d="M481.05,296.52l27.76-16,6.26,10.87-41.22,23.76-47.32-82.09,13.46-7.76,41.06,71.22Z"/>
        <path class="st13" d="M506.09,191.75l38.75,86.47-14.19,6.35-38.74-86.47,14.18-6.35Z"/>
        <path class="st13" d="M579.78,261.9c-5.52-.62-10.27-2.45-14.27-5.49-3.99-3.04-6.79-7.17-8.42-12.38l15.89-4.94c1.56,3.8,4.1,6.53,7.62,8.2,3.51,1.67,7.75,1.73,12.69.19,5.12-1.59,8.73-4.07,10.83-7.43,2.1-3.36,2.54-7,1.32-10.9-.94-3.04-2.6-5.23-4.97-6.59-2.38-1.35-5.05-2.14-8.01-2.36-2.97-.22-6.99-.21-12.05.04-6.39.27-11.68.18-15.87-.28-4.18-.46-8.11-1.98-11.76-4.56-3.66-2.58-6.36-6.68-8.11-12.33-1.62-5.21-1.73-10.17-.34-14.88,1.39-4.72,4.1-8.84,8.14-12.38,4.04-3.54,9.14-6.27,15.3-8.18,8.77-2.72,16.63-2.76,23.59-.12,6.96,2.65,11.93,7.69,14.91,15.14l-16.41,5.1c-1.28-3.22-3.72-5.55-7.31-7.01-3.59-1.45-7.74-1.45-12.42,0-4.25,1.32-7.38,3.49-9.4,6.49-2.02,3.01-2.39,6.55-1.12,10.63.86,2.78,2.42,4.79,4.66,6.05,2.24,1.25,4.83,1.99,7.75,2.23,2.93.23,6.84.25,11.73.07,6.5-.21,11.9-.08,16.18.4,4.29.47,8.29,2.02,12,4.62,3.71,2.6,6.46,6.77,8.24,12.5,1.43,4.6,1.54,9.32.33,14.17-1.2,4.85-3.79,9.25-7.75,13.19-3.96,3.94-9.15,6.91-15.58,8.91-6.07,1.89-11.87,2.53-17.39,1.91Z"/>
        <path class="st13" d="M838.18,240.7c-4.54-3.21-7.82-7.11-9.84-11.7-2.03-4.59-2.48-9.56-1.38-14.91l16.29,3.36c-.47,4.08.43,7.7,2.7,10.86,2.27,3.16,5.94,5.26,11.01,6.31,5.25,1.08,9.61.66,13.07-1.27,3.46-1.93,5.61-4.9,6.44-8.9.64-3.11.25-5.84-1.17-8.18-1.42-2.33-3.38-4.32-5.87-5.95-2.49-1.63-6.02-3.56-10.57-5.8-5.72-2.85-10.31-5.49-13.75-7.91-3.44-2.43-6.14-5.65-8.1-9.68-1.95-4.02-2.33-8.93-1.14-14.71,1.11-5.34,3.4-9.74,6.9-13.19,3.49-3.46,7.87-5.75,13.12-6.9,5.24-1.15,11.03-1.07,17.35.24,8.99,1.86,15.89,5.63,20.7,11.3,4.82,5.68,6.73,12.5,5.73,20.46l-16.83-3.47c.44-3.44-.57-6.66-3.01-9.67-2.44-3.01-6.07-5.01-10.87-6-4.36-.9-8.15-.52-11.37,1.13-3.22,1.66-5.25,4.58-6.12,8.76-.59,2.85-.21,5.37,1.15,7.55,1.36,2.18,3.27,4.09,5.72,5.7,2.45,1.62,5.85,3.53,10.23,5.73,5.79,2.96,10.45,5.68,13.98,8.17,3.52,2.49,6.28,5.78,8.26,9.85,1.99,4.08,2.38,9.05,1.17,14.92-.97,4.72-3.16,8.91-6.56,12.57-3.4,3.66-7.79,6.26-13.16,7.79-5.37,1.54-11.35,1.62-17.94.27-6.23-1.29-11.61-3.53-16.14-6.74Z"/>
        <path class="st13" d="M998.49,192.99l-4.53,11.84-23.56-9-29.3,76.67-14.52-5.55,29.29-76.67-23.69-9.05,4.53-11.84,61.76,23.6Z"/>
        <path class="st13" d="M982.12,288.84c-.82-2.58-.58-5.11.71-7.61,1.3-2.5,3.23-4.16,5.8-4.98,2.58-.82,5.12-.58,7.62.71,2.42,1.25,4.04,3.17,4.86,5.74s.58,5.11-.71,7.61-3.23,4.16-5.8,4.98c-2.57.82-5.07.6-7.49-.65-2.51-1.29-4.16-3.23-4.98-5.8Z"/>
        <path class="st13" d="M1130.21,327.09c-4.44,1.94-9.45,2.39-15.03,1.39-5.59-1.01-11.43-3.95-17.55-8.81l-13.45-10.69-23.91,30.11-12.17-9.67,58.93-74.19,25.62,20.35c5.7,4.52,9.74,9.33,12.14,14.42,2.39,5.1,3.24,10.09,2.54,14.99-.7,4.9-2.69,9.42-5.97,13.54-2.99,3.77-6.72,6.62-11.14,8.55ZM1118.37,314.82c3.94-.29,7.44-2.36,10.5-6.2,6.45-8.11,5.08-15.82-4.1-23.11l-13.45-10.69-19.25,24.23,13.45,10.69c4.62,3.67,8.91,5.37,12.86,5.08Z"/>
        <path class="st13" d="M1165.6,413.22l-26.24-29.75-19.04,7.69-10.72-12.17,93.62-37.3,11.9,13.5-48.71,88.22-10.83-12.27,10.01-17.92ZM1172.22,401.55l22.83-40.68-43.31,17.47,20.47,23.21Z"/>
        <path class="st13" d="M1266.02,423.56l-52.04,30.65c-6.19,3.64-9.89,8.01-11.11,13.11-1.22,5.1-.12,10.54,3.29,16.33,3.46,5.87,7.71,9.51,12.76,10.92,5.05,1.41,10.66.29,16.85-3.36l52.04-30.65,7.88,13.39-51.81,30.51c-6.65,3.92-13.15,5.79-19.48,5.62-6.33-.18-12.05-2.02-17.18-5.54-5.14-3.52-9.42-8.22-12.89-14.09-3.46-5.87-5.47-11.89-6.04-18.04-.56-6.16.64-12,3.59-17.54,2.96-5.54,7.77-10.27,14.43-14.19l51.81-30.51,7.88,13.4Z"/>
        <path class="st13" d="M1240.62,553.82l11.76,29.8-11.66,4.6-17.46-44.26,88.14-34.78,5.71,14.46-76.47,30.17Z"/>
      </g>
      <g>
        <path class="st13" d="M332.95,1185.84l23.25,22.04-8.63,9.1-34.53-32.74,65.19-68.76,11.28,10.69-56.57,59.66Z"/>
        <path class="st13" d="M436.34,1148.58l-18.91,20.64-8.25-6.71,16.27-22.8,10.89,8.87Z"/>
        <path class="st13" d="M443.32,1186.97l-15.59,23.03,27.1,18.34-7.11,10.5-27.1-18.35-16.28,24.05,30.48,20.64-7.11,10.5-43.35-29.35,53.2-78.57,43.35,29.36-7.11,10.5-30.48-20.64ZM481.61,1173.22l-33.28-4.59,6.42-9.48,34.27,3.12-7.41,10.95Z"/>
        <path class="st13" d="M554.57,1234.56l-5.5,11.42-22.72-10.94-35.59,73.96-14-6.74,35.59-73.96-22.85-11,5.49-11.43,59.58,28.67Z"/>
        <path class="st13" d="M569.01,1334.2c-6.09-5.92-10.25-13.01-12.5-21.28-2.25-8.27-2.16-16.89.23-25.84,2.41-8.95,6.65-16.43,12.73-22.42,6.07-5.99,13.23-10.02,21.46-12.09,8.22-2.07,16.59-1.97,25.11.32,8.61,2.31,15.94,6.42,22.03,12.34,6.08,5.92,10.23,12.98,12.44,21.2,2.21,8.22,2.12,16.8-.28,25.76-2.4,8.95-6.63,16.45-12.68,22.5-6.05,6.05-13.18,10.11-21.41,12.18-8.24,2.07-16.65,1.95-25.24-.36-8.51-2.29-15.81-6.38-21.89-12.3ZM611.71,1333.66c5.48-1.49,10.25-4.45,14.31-8.86,4.05-4.42,6.99-10,8.81-16.76,1.81-6.76,2.07-13.04.75-18.85-1.31-5.81-3.97-10.71-7.98-14.71-4.01-3.99-9.05-6.8-15.1-8.43-6.06-1.62-11.82-1.71-17.3-.27-5.47,1.45-10.23,4.36-14.27,8.73-4.05,4.37-6.98,9.94-8.79,16.7-1.82,6.76-2.08,13.07-.78,18.92,1.3,5.85,3.95,10.8,7.94,14.84,4,4.04,9.03,6.87,15.08,8.49,6.06,1.62,11.83,1.7,17.31.2Z"/>
        <path class="st13" d="M695.45,1268.93l-11.37,94.07-15.43-1.87,11.37-94.07,15.43,1.87Z"/>
        <path class="st13" d="M726.76,1353.54l32.02,1.01-.4,12.53-47.56-1.49,2.98-94.71,15.53.49-2.58,82.17Z"/>
        <path class="st13" d="M792.21,1282.7l2.76,27.68,32.56-3.24,1.25,12.62-32.55,3.24,2.88,28.89,36.62-3.65,1.26,12.62-52.1,5.19-9.4-94.42,52.09-5.19,1.25,12.62-36.63,3.64Z"/>
        <path class="st13" d="M937.46,1243.1c8.43,1.21,15.76,4.57,22.01,10.07,6.25,5.51,10.92,12.82,14.03,21.94,3.11,9.12,3.85,17.7,2.22,25.75-1.62,8.04-5.42,15.07-11.39,21.09-5.97,6.02-13.73,10.65-23.28,13.91l-29.29,9.98-30.56-89.68,29.29-9.99c9.55-3.25,18.54-4.27,26.97-3.07ZM958.19,1307.12c3.66-7.58,3.73-16.54.21-26.86-3.54-10.4-9.11-17.58-16.7-21.53-7.59-3.94-16.63-4.13-27.12-.56l-14.59,4.97,22.39,65.69,14.58-4.97c10.5-3.58,17.57-9.16,21.22-16.74Z"/>
        <path class="st13" d="M990.77,1212.9l30.15,52.33c3.58,6.23,7.92,9.97,13,11.24,5.08,1.27,10.54.22,16.37-3.14,5.91-3.4,9.59-7.62,11.04-12.65,1.45-5.03.39-10.65-3.2-16.88l-30.15-52.33,13.47-7.76,30.01,52.1c3.86,6.69,5.67,13.2,5.44,19.53-.24,6.33-2.14,12.04-5.71,17.13-3.57,5.1-8.3,9.35-14.21,12.75-5.91,3.41-11.94,5.36-18.1,5.87-6.16.5-12-.75-17.5-3.76-5.51-3.01-10.2-7.87-14.05-14.56l-30.01-52.1,13.46-7.76Z"/>
        <path class="st13" d="M1209.67,1161.06l-11.03,10.94-83.03-17.3,49.83,50.23-11.03,10.94-66.83-67.36,11.03-10.95,82.94,17.2-49.74-50.14,11.03-10.94,66.83,67.36Z"/>
        <path class="st13" d="M1246.18,1105.44c-7.51,3.96-15.54,5.72-24.11,5.3-8.56-.42-16.73-3.15-24.5-8.21-7.77-5.06-13.57-11.39-17.39-19.03-3.82-7.63-5.44-15.68-4.87-24.14.57-8.47,3.26-16.39,8.07-23.78,4.85-7.47,11.03-13.18,18.54-17.14,7.51-3.95,15.51-5.71,24.01-5.28,8.5.43,16.64,3.17,24.41,8.23,7.77,5.06,13.6,11.39,17.48,19.01,3.88,7.62,5.53,15.67,4.96,24.13-.57,8.47-3.29,16.43-8.14,23.9-4.81,7.39-10.96,13.07-18.46,17.03ZM1258.87,1064.67c.27-5.68-1.07-11.13-4.01-16.35-2.94-5.22-7.35-9.74-13.22-13.55-5.87-3.82-11.77-6-17.7-6.55-5.93-.55-11.41.46-16.45,3.05-5.04,2.58-9.27,6.49-12.68,11.76-3.42,5.26-5.29,10.71-5.6,16.36-.32,5.65.99,11.08,3.89,16.27,2.91,5.2,7.29,9.71,13.16,13.52s11.79,6.01,17.75,6.59c5.98.57,11.5-.42,16.57-2.97,5.07-2.56,9.32-6.46,12.74-11.72,3.42-5.26,5.27-10.72,5.55-16.4Z"/>
        <path class="st13" d="M1325.6,965.49l-43.3,6.14-4.41,11.01,35.17,14.1-5.78,14.43-87.95-35.26,12.18-30.37c2.7-6.75,6.18-11.99,10.41-15.72,4.25-3.74,8.81-5.97,13.7-6.7,4.9-.73,9.79-.11,14.68,1.84,5.73,2.31,10.28,6.06,13.62,11.26,3.35,5.21,4.48,11.61,3.4,19.21l45.17-7.16-6.9,17.21ZM1266.37,978.02l6.39-15.94c2.17-5.4,2.45-10.01.85-13.84-1.6-3.82-4.68-6.65-9.24-8.48-4.56-1.82-8.66-1.9-12.31-.24-3.66,1.67-6.59,5.24-8.78,10.73l-6.4,15.95,29.49,11.82Z"/>
        <path class="st13" d="M1268.4,834.9c5.25-6.7,11.83-11.39,19.71-14.05,7.88-2.66,16.56-3.07,26.01-1.21,9.46,1.86,17.26,5.5,23.42,10.92,6.16,5.43,10.37,12.23,12.6,20.4,2.24,8.18,2.38,17.21.44,27.11l-5.96,30.37-92.98-18.26,5.96-30.37c1.95-9.9,5.55-18.2,10.79-24.9ZM1334.23,848.86c-4.75-6.95-12.48-11.48-23.18-13.58-10.79-2.12-19.79-.88-26.99,3.73-7.2,4.6-11.87,12.35-14.01,23.23l-2.97,15.12,68.1,13.37,2.96-15.12c2.14-10.88.83-19.8-3.91-26.75Z"/>
      </g>
    </g>
    <circle class="st16" cx="724.66" cy="184.46" r="22.86"/>
    <circle class="st16" cx="277.51" cy="1068.85" r="22.86"/>
  </g>
</svg>